<?xml version="1.0" standalone="no"?>
<!DOCTYPE svg PUBLIC "-//W3C//DTD SVG 20010904//EN"
 "http://www.w3.org/TR/2001/REC-SVG-20010904/DTD/svg10.dtd">
<svg version="1.0" xmlns="http://www.w3.org/2000/svg"
 width="1000.000000pt" height="1000.000000pt" viewBox="0 0 1000.000000 1000.000000"
 preserveAspectRatio="xMidYMid meet">
<metadata>
Created by potrace 1.11, written by Peter Selinger 2001-2013
</metadata>
<g transform="translate(0.000000,1000.000000) scale(0.100000,-0.100000)"
fill="#000000" stroke="none">
<path d="M0 5000 l0 -5000 5000 0 5000 0 0 5000 0 5000 -5000 0 -5000 0 0
-5000z m6292 4080 c57 -50 72 -84 66 -159 -3 -45 -11 -68 -32 -95 -110 -145
-336 -68 -336 114 0 63 17 97 72 144 39 34 45 36 113 36 70 0 74 -1 117 -40z
m-3774 -42 l-3 -63 -168 -5 c-168 -5 -169 -5 -192 -32 -17 -19 -25 -45 -30
-90 -3 -35 -5 -504 -3 -1043 3 -1098 -2 -1019 75 -1047 60 -21 546 -17 636 5
221 55 376 215 465 482 24 70 67 233 76 288 4 20 11 37 16 38 6 0 28 1 50 1
22 0 45 -1 51 -1 7 -1 8 -24 5 -68 -9 -108 -25 -380 -36 -608 -6 -115 -13
-225 -16 -243 l-6 -32 -1032 2 -1031 3 -3 56 -3 56 145 6 c184 7 221 24 245
112 8 28 11 342 11 1022 0 883 -2 987 -16 1023 -9 22 -26 46 -38 53 -13 7 -82
14 -181 17 l-160 5 -3 49 c-2 27 -1 55 2 62 4 12 101 14 576 14 l571 0 -3 -62z
m1692 -1408 c5 -548 6 -588 24 -630 67 -156 180 -228 345 -218 173 10 315 126
389 317 l26 66 3 395 c4 380 3 396 -16 427 -26 42 -85 71 -158 79 -93 11 -101
16 -99 66 1 24 4 48 8 54 7 11 291 28 468 29 l75 0 5 -680 c4 -489 8 -686 17
-700 34 -59 83 -84 179 -89 42 -3 81 -9 86 -14 5 -5 8 -29 6 -53 l-3 -44 -255
-5 c-140 -3 -260 -2 -266 2 -7 5 -14 39 -18 76 -14 169 -19 202 -27 202 -4 0
-43 -35 -86 -78 -88 -88 -193 -161 -285 -199 -85 -35 -255 -44 -344 -18 -124
36 -243 135 -290 242 -57 128 -57 133 -63 633 -7 512 -5 500 -70 544 -31 21
-141 46 -202 46 -6 0 -9 25 -7 58 l3 57 155 7 c85 4 178 9 205 11 28 2 82 3
120 3 l70 -1 5 -585z m2150 -120 c3 -382 9 -703 14 -713 17 -36 66 -51 175
-53 57 -2 108 -7 113 -12 5 -5 8 -31 6 -58 l-3 -49 -445 0 -445 0 -3 49 c-2
27 1 53 5 57 5 5 57 11 116 13 79 2 113 8 133 21 54 35 54 39 54 622 0 522 -1
538 -21 579 -33 69 -73 87 -204 94 l-110 5 -3 58 c-2 40 1 59 10 62 13 5 504
23 568 21 l35 -1 5 -695z m1880 629 c0 -50 -3 -55 -148 -253 -220 -297 -420
-570 -489 -666 -34 -47 -125 -170 -202 -275 -77 -104 -137 -193 -135 -197 7
-11 412 -10 511 2 47 5 100 18 125 31 96 48 168 150 208 294 49 178 38 160 99
163 l53 3 -6 -143 c-9 -191 -26 -450 -31 -465 -3 -10 -144 -13 -660 -13 l-655
0 0 61 0 60 128 174 c70 95 288 391 485 658 196 267 357 488 357 491 0 3 -112
6 -248 6 -196 0 -259 -3 -301 -16 -60 -17 -120 -67 -156 -129 -22 -37 -75
-185 -75 -210 0 -5 -5 -27 -11 -47 l-10 -38 -59 0 -60 0 0 33 c0 47 31 500 36
515 3 9 136 12 624 12 l620 0 0 -51z m-4542 -2016 c15 -11 40 -38 56 -61 24
-34 29 -51 29 -99 0 -161 -177 -246 -302 -145 -114 91 -87 264 50 322 39 16
135 7 167 -17z m-1660 -63 l3 -60 -151 0 c-177 0 -213 -10 -235 -64 -13 -30
-15 -182 -15 -1049 0 -669 3 -1024 10 -1044 6 -16 25 -38 43 -49 29 -17 55
-19 289 -22 298 -4 380 6 493 62 212 104 332 316 420 739 5 25 9 27 60 27 29
0 56 -3 58 -7 3 -5 -3 -141 -13 -303 -10 -162 -23 -371 -28 -463 -5 -93 -12
-170 -14 -173 -6 -6 -2047 -6 -2056 0 -6 4 -8 74 -3 108 1 3 65 8 144 10 164
4 203 17 224 78 18 52 18 2055 0 2090 -24 48 -68 60 -224 60 -107 0 -143 3
-144 13 -3 41 -1 96 4 104 3 4 259 7 569 6 l563 -2 3 -61z m6338 -820 c42 -11
99 -32 127 -47 72 -39 153 -122 185 -190 l27 -58 6 -525 c6 -570 7 -579 62
-626 37 -31 100 -32 163 -2 52 24 55 23 90 -44 13 -26 12 -29 -19 -58 -89 -84
-242 -114 -359 -70 -69 26 -129 87 -173 178 -16 34 -34 62 -39 62 -4 0 -39
-29 -77 -64 -160 -148 -254 -187 -459 -194 -198 -6 -315 26 -406 110 -88 81
-119 158 -113 280 14 275 336 483 892 576 l157 26 0 141 c0 169 -12 213 -77
285 -66 74 -149 111 -260 117 -166 10 -345 -63 -345 -140 0 -13 18 -55 41 -92
46 -77 53 -131 24 -192 -32 -68 -127 -106 -211 -84 -126 34 -177 181 -113 326
29 65 141 172 227 217 179 94 442 121 650 68z m-3552 -7 c15 -49 36 -185 36
-235 0 -31 4 -59 9 -62 5 -4 38 29 73 71 112 135 236 212 379 234 213 33 381
-51 471 -235 21 -44 38 -86 38 -93 0 -25 17 -12 53 40 86 124 220 231 335 267
169 53 355 26 459 -67 49 -43 111 -148 140 -237 l26 -81 4 -493 5 -493 23 -28
c29 -34 83 -51 164 -51 l61 0 0 -60 c0 -41 -4 -60 -12 -60 -11 0 -750 0 -770
0 -5 0 -8 26 -8 59 l0 58 83 5 c98 5 136 21 159 68 16 32 18 76 18 466 0 251
-4 454 -10 485 -23 122 -105 221 -206 249 -65 18 -189 8 -242 -19 -98 -50
-161 -130 -215 -275 l-31 -81 -4 -385 c-4 -421 -1 -445 51 -484 23 -17 46 -22
118 -24 l89 -4 0 -59 c0 -33 -4 -59 -10 -59 -5 0 -181 0 -390 0 -209 0 -384 0
-390 0 -6 0 -10 27 -10 60 l0 60 73 1 c92 1 136 17 165 60 l23 34 -3 455 -3
455 -26 71 c-33 92 -78 147 -146 180 -48 24 -61 26 -146 22 -74 -3 -102 -9
-142 -30 -92 -48 -162 -141 -212 -283 l-28 -80 -3 -395 c-3 -426 -3 -424 50
-463 21 -16 48 -22 112 -25 l84 -4 4 -55 c1 -30 0 -57 -4 -59 -6 -4 -461 -6
-776 -4 -9 0 -12 15 -10 58 l3 57 87 5 c93 5 130 22 156 71 9 19 11 152 10
589 -3 536 -4 566 -22 593 -24 35 -66 57 -136 72 l-55 11 -3 52 c-2 36 1 54
10 57 7 3 101 11 208 19 107 7 203 14 212 15 9 0 19 -7 22 -16z m-1034 -713
c3 -388 6 -706 8 -707 30 -30 65 -38 172 -43 l115 -5 3 -49 c2 -27 -1 -53 -6
-58 -5 -5 -201 -9 -443 -9 l-434 0 -3 61 -3 60 102 0 c73 0 111 5 135 16 66
31 64 15 64 627 l0 554 -22 33 c-48 70 -99 89 -235 90 l-83 0 0 59 c0 40 4 61
13 64 8 3 87 6 177 7 91 0 166 3 169 6 3 2 64 3 135 2 l131 -3 5 -705z m-990
-1721 c107 -52 208 -126 252 -184 74 -97 110 -283 90 -464 -7 -59 -12 -122
-12 -141 0 -40 -29 -122 -40 -115 -4 3 -14 43 -21 90 -7 47 -16 88 -21 91 -14
9 -9 -108 7 -171 9 -33 27 -82 40 -108 l25 -48 -25 -49 c-13 -26 -36 -57 -51
-69 -31 -24 -80 -27 -108 -6 -59 45 -143 -28 -147 -127 l-2 -33 -6 33 c-9 51
-26 38 -23 -18 3 -39 0 -50 -12 -50 -15 0 -19 10 -31 68 -11 52 -28 26 -21
-31 7 -48 -1 -66 -27 -67 -12 0 -37 65 -37 97 0 47 -19 12 -22 -42 -3 -48 -4
-50 -33 -50 -28 0 -30 3 -41 60 -11 64 -22 59 -26 -15 -3 -43 -5 -45 -33 -45
-29 0 -30 2 -35 49 -7 72 -30 73 -30 2 0 -57 -6 -64 -44 -50 -13 5 -15 16 -10
60 6 46 4 54 -10 54 -12 0 -16 -10 -16 -44 0 -48 -11 -64 -29 -43 -7 10 -7 23
1 49 12 41 4 83 -12 58 -6 -8 -10 -30 -10 -47 0 -18 -4 -33 -9 -33 -18 0 -21
18 -13 57 10 41 1 76 -25 105 -14 16 -17 16 -51 -3 -52 -27 -66 -24 -111 21
-22 22 -44 40 -50 40 -15 0 -51 74 -51 105 0 14 11 47 24 73 22 44 56 186 56
234 0 43 -20 2 -42 -85 -12 -48 -23 -85 -26 -83 -12 13 -41 235 -42 321 0 187
49 314 165 431 124 126 239 165 475 161 144 -2 145 -2 220 -38z m4323 5 c10
-20 11 -35 3 -65 -8 -32 -7 -41 8 -58 17 -19 21 -19 47 -6 15 8 39 15 52 15
14 0 27 7 31 15 6 16 43 20 64 7 7 -5 26 -7 42 -4 22 3 36 15 55 49 31 52 49
46 60 -18 4 -21 11 -41 16 -45 5 -3 13 -14 19 -24 8 -15 3 -27 -30 -65 -42
-48 -50 -68 -25 -59 8 4 15 1 15 -5 0 -22 68 -12 96 14 15 14 35 25 45 25 19
0 70 -20 79 -31 3 -3 13 -8 23 -12 9 -3 17 -14 17 -23 0 -12 7 -15 27 -11 14
3 43 -1 64 -8 21 -8 46 -11 57 -8 22 5 91 -27 112 -52 18 -22 64 -45 90 -45
41 0 68 -117 39 -172 -6 -13 -31 -46 -55 -75 -24 -28 -44 -58 -44 -66 0 -18
-26 -41 -39 -33 -15 10 -21 -21 -21 -113 0 -61 -4 -93 -15 -107 -8 -10 -15
-29 -15 -42 0 -13 -11 -40 -25 -60 -14 -20 -25 -44 -25 -52 0 -24 -51 -58
-107 -71 -26 -6 -62 -17 -80 -25 -17 -8 -36 -14 -41 -14 -6 0 -27 -15 -46 -34
-33 -30 -36 -38 -36 -88 0 -43 -5 -59 -21 -74 -12 -10 -28 -32 -36 -49 -26
-50 -54 -76 -70 -64 -10 9 -13 6 -13 -13 0 -23 -23 -66 -44 -80 -24 -17 -36
-8 -34 24 3 27 -3 35 -37 59 -22 15 -43 25 -46 23 -4 -2 -14 5 -24 16 -10 11
-26 20 -37 20 -10 0 -18 3 -18 6 0 14 70 90 108 116 43 29 57 68 26 68 -14 0
-15 7 -10 41 5 34 4 40 -8 36 -18 -7 -33 10 -38 43 -2 20 -9 26 -38 28 -57 6
-61 15 -56 113 4 69 2 90 -9 99 -8 7 -15 18 -15 26 0 7 -14 14 -32 16 -31 3
-33 6 -38 48 -6 48 -15 70 -31 70 -6 0 -29 9 -51 20 -23 11 -48 20 -56 20 -26
0 -72 57 -72 89 0 39 -17 40 -69 5 -32 -21 -48 -25 -92 -22 -49 3 -54 5 -53
26 1 20 -3 22 -26 17 -18 -4 -31 -1 -40 10 -7 8 -19 15 -27 15 -8 0 -13 6 -10
13 2 6 -5 25 -16 40 l-19 28 32 65 c33 68 45 78 102 89 36 7 37 9 43 60 5 33
2 67 -5 91 -11 33 -10 39 4 50 13 9 14 13 4 17 -10 3 -10 9 -2 23 7 12 28 21
59 26 56 8 65 5 65 -23 0 -30 49 -29 92 2 l27 20 -25 46 c-13 25 -22 49 -19
52 3 3 24 0 46 -6 21 -6 42 -7 44 -3 3 4 18 10 35 14 17 3 33 12 36 21 10 24
42 18 57 -11z m-1845 -171 l3 -133 49 0 49 0 3 48 3 47 102 3 102 3 3 -48 3
-48 82 -5 c96 -6 126 -23 161 -90 19 -39 22 -60 22 -162 l0 -118 -248 0 -248
0 -30 31 c-85 92 -224 149 -358 149 -137 0 -248 -43 -341 -131 l-52 -49 -351
0 -352 0 0 129 c0 116 2 131 23 161 42 63 68 74 180 80 l102 5 3 48 3 47 182
-2 182 -3 3 -48 3 -48 92 3 92 3 3 133 3 132 262 -2 262 -3 3 -132z m-173
-546 c60 -30 114 -85 146 -147 35 -68 33 -186 -4 -257 -99 -191 -342 -232
-488 -82 -160 164 -93 434 125 505 62 21 161 12 221 -19z m-585 -52 c0 -3 -10
-34 -22 -68 -44 -129 -23 -300 52 -415 86 -133 200 -207 356 -232 238 -38 487
127 550 364 22 81 18 209 -10 289 l-23 67 219 0 218 0 0 -363 c0 -356 0 -364
-22 -407 -28 -54 -62 -80 -119 -91 -60 -11 -1654 -11 -1703 1 -48 11 -84 36
-113 80 -23 33 -23 36 -23 406 l0 374 320 0 c176 0 320 -2 320 -5z m-1633
-532 c-7 -118 -25 -190 -60 -241 -15 -21 -27 -48 -27 -60 0 -30 -54 -89 -93
-101 -18 -5 -95 -9 -172 -7 -173 3 -193 11 -234 95 -15 32 -41 75 -57 96 -22
29 -31 56 -40 124 -18 122 -17 160 2 168 27 10 34 -18 28 -102 -3 -47 -2 -90
4 -105 10 -23 11 -21 11 18 1 50 24 55 29 6 4 -50 12 -74 23 -74 6 0 9 14 7
33 -2 23 1 32 12 32 11 0 16 -15 20 -54 3 -33 10 -56 19 -59 10 -3 12 4 7 34
-7 45 5 70 28 61 11 -5 16 -19 16 -51 0 -25 5 -48 10 -51 11 -7 13 1 14 55 1
30 4 35 26 35 22 0 25 -5 28 -43 2 -28 7 -42 15 -39 8 2 11 20 9 45 -4 41 -3
42 27 42 31 0 31 0 24 -45 -3 -28 -2 -45 5 -45 12 0 22 24 22 54 0 29 7 35 32
28 17 -4 19 -10 14 -44 -5 -30 -3 -39 6 -36 7 3 14 23 16 45 2 26 9 44 18 47
25 10 34 -2 34 -45 0 -58 18 -47 22 13 2 41 7 54 21 56 13 3 17 -3 17 -27 0
-17 5 -31 10 -31 6 0 10 18 10 39 0 22 3 46 6 55 10 27 24 18 24 -16 0 -25 3
-29 10 -18 5 8 10 49 10 90 0 52 5 82 16 98 30 43 37 27 31 -75z"/>
<path d="M8395 4473 c-11 -2 -66 -13 -123 -24 -295 -57 -469 -151 -535 -291
-24 -50 -27 -69 -27 -155 0 -94 2 -102 33 -153 17 -30 51 -68 74 -84 36 -25
54 -30 121 -34 140 -8 256 41 359 151 112 120 145 225 141 444 -2 87 -7 147
-13 148 -5 2 -19 1 -30 -2z"/>
<path d="M2201 2064 c-71 -21 -141 -105 -141 -169 0 -68 55 -133 119 -142 36
-5 50 1 135 51 136 81 147 101 99 187 -29 50 -42 58 -128 77 -28 6 -55 5 -84
-4z"/>
<path d="M2697 2053 c-31 -20 -67 -86 -67 -123 0 -26 93 -124 152 -160 44 -27
73 -25 132 8 67 37 91 72 90 130 -1 79 -19 104 -94 129 -96 32 -178 38 -213
16z"/>
<path d="M2494 1733 c-37 -83 -42 -128 -15 -142 19 -10 22 -8 32 16 13 32 25
183 15 183 -3 0 -18 -26 -32 -57z"/>
<path d="M2550 1716 c0 -102 8 -136 31 -136 24 0 41 42 33 78 -9 36 -51 132
-58 132 -4 0 -6 -33 -6 -74z"/>
<path d="M7055 2783 c-59 -31 -66 -33 -89 -27 -21 5 -24 3 -19 -14 3 -11 18
-31 34 -43 23 -17 29 -30 29 -60 0 -21 5 -50 11 -66 9 -25 12 -26 20 -10 6 9
17 17 24 17 8 0 24 9 35 20 12 12 25 18 30 15 22 -14 19 19 -5 47 -23 27 -26
38 -20 73 8 55 -8 70 -50 48z m20 -94 c-8 -12 -45 -12 -45 0 0 10 30 20 43 14
4 -3 5 -9 2 -14z"/>
<path d="M7427 2722 c-23 -35 -31 -41 -51 -36 -13 3 -27 1 -30 -5 -4 -6 0 -11
9 -11 10 0 26 -21 41 -55 24 -52 44 -71 44 -42 0 7 16 28 35 47 33 32 34 34
17 53 -9 10 -22 35 -28 56 l-10 36 -27 -43z m21 -60 c13 11 14 11 10 -2 -5
-16 -48 -27 -48 -12 0 14 14 24 18 12 3 -7 9 -7 20 2z"/>
<path d="M7280 2685 c0 -10 -11 -15 -35 -15 -57 0 -85 -18 -85 -56 0 -21 8
-41 23 -54 29 -28 73 -51 81 -43 13 13 5 -10 -39 -108 l-45 -101 18 -42 c11
-22 25 -46 33 -53 9 -7 70 -16 143 -20 l127 -8 20 31 c10 17 19 43 19 56 0 14
10 38 21 53 17 21 19 29 9 35 -10 6 -4 17 23 43 64 60 87 142 42 153 -19 5
-32 -1 -55 -23 -30 -29 -31 -29 -100 -20 -38 5 -67 13 -65 17 7 11 -45 114
-62 124 -8 4 -22 17 -31 27 -20 23 -42 25 -42 4z m100 -284 c0 -6 -4 -13 -10
-16 -5 -3 -10 1 -10 9 0 9 5 16 10 16 6 0 10 -4 10 -9z m30 -1 c0 -5 -4 -10
-10 -10 -5 0 -10 5 -10 10 0 6 5 10 10 10 6 0 10 -4 10 -10z"/>
<path d="M6785 2670 c-11 -5 -31 -6 -45 -3 l-25 6 20 -22 c19 -22 15 -32 -18
-43 -4 -2 -1 -19 7 -38 11 -28 12 -46 4 -90 -13 -66 -18 -72 -60 -77 -42 -4
-78 -29 -78 -53 0 -10 -7 -25 -15 -34 -8 -8 -15 -17 -15 -19 0 -2 28 -12 63
-22 34 -9 95 -32 135 -51 65 -30 76 -32 95 -20 12 8 35 17 51 20 16 4 40 16
53 26 26 20 48 18 57 -6 7 -17 141 -20 151 -3 4 6 7 26 7 45 0 19 18 74 39
122 35 78 37 88 22 97 -36 22 -83 68 -83 81 0 23 -41 17 -47 -7 -4 -15 -11
-19 -25 -15 -14 3 -22 -1 -25 -15 -13 -49 -53 3 -53 70 0 66 -16 73 -69 32
-21 -17 -46 -31 -54 -31 -28 0 -66 22 -69 40 -2 13 -8 15 -23 10z m178 -247
c-7 -17 -23 -17 -23 0 0 7 -3 8 -8 2 -9 -13 -32 -18 -32 -7 0 14 8 18 38 17
19 0 28 -4 25 -12z"/>
<path d="M7677 2532 c-2 -4 -7 -20 -11 -37 -4 -16 -21 -47 -37 -68 -28 -35
-29 -39 -14 -59 10 -15 13 -33 9 -54 -5 -26 -1 -34 21 -48 24 -16 25 -19 12
-34 -13 -14 -13 -20 -2 -35 11 -16 14 -13 24 26 8 33 20 50 49 70 21 15 45 27
53 27 10 0 15 16 17 57 2 33 10 65 18 74 21 23 5 30 -50 25 -38 -3 -46 -1 -46
13 0 18 -37 55 -43 43z m80 -138 c2 -7 -10 -11 -28 -10 -18 1 -34 6 -36 11 -2
6 11 10 29 10 17 0 33 -6 35 -11z"/>
<path d="M7877 2462 c-6 -9 11 -109 24 -142 5 -14 21 -30 34 -37 23 -10 25 -9
35 26 5 20 19 47 30 59 l21 22 -32 28 c-56 47 -100 65 -112 44z m40 -74 c-3
-8 -6 -5 -6 6 -1 11 2 17 5 13 3 -3 4 -12 1 -19z m30 0 c-3 -8 -6 -5 -6 6 -1
11 2 17 5 13 3 -3 4 -12 1 -19z"/>
<path d="M7827 2442 c-11 -12 -18 -40 -19 -78 -3 -54 -5 -59 -29 -64 -46 -9
-80 -43 -89 -88 -6 -33 -4 -45 11 -58 22 -20 56 -4 61 28 2 19 8 22 31 20 55
-6 127 76 99 111 -5 7 -12 30 -16 52 -18 105 -20 109 -49 77z m13 -171 c0 -4
-9 -7 -20 -8 -19 -2 -26 8 -14 20 7 7 34 -2 34 -12z"/>
<path d="M8006 2358 c-17 -24 -13 -39 6 -20 17 17 25 15 33 -10 4 -14 8 -18
12 -10 2 6 16 12 29 12 14 0 24 6 24 14 0 18 -6 22 -52 30 -31 6 -39 3 -52
-16z m81 -4 c-3 -3 -12 -4 -19 -1 -8 3 -5 6 6 6 11 1 17 -2 13 -5z"/>
<path d="M7590 2355 c0 -9 -9 -28 -20 -42 -11 -14 -20 -36 -20 -50 0 -13 -11
-41 -25 -63 -32 -51 -41 -108 -21 -135 13 -17 18 -18 35 -7 12 7 21 8 21 3 0
-13 59 -22 80 -11 22 12 31 45 17 59 -7 7 -6 15 2 25 11 13 9 21 -10 47 -17
24 -20 35 -12 49 9 13 7 19 -8 28 -14 9 -19 24 -19 56 0 25 -4 48 -10 51 -5 3
-10 -1 -10 -10z m26 -224 c-4 -6 -13 -11 -19 -11 -8 0 -7 3 2 9 8 5 10 14 6
22 -6 11 -5 11 5 2 7 -6 9 -16 6 -22z"/>
<path d="M7987 2313 c-11 -10 -8 -43 4 -43 6 0 19 5 30 10 15 8 19 7 19 -5 0
-18 1 -18 35 -5 14 5 23 14 20 20 -4 6 1 7 11 3 12 -4 15 -2 12 8 -2 8 -15 16
-28 17 -17 3 -21 0 -17 -12 6 -15 3 -15 -30 -1 -40 17 -47 18 -56 8z"/>
<path d="M6567 2249 c10 -16 28 -39 40 -50 20 -19 23 -20 45 -5 29 19 38 13
38 -26 0 -26 3 -28 41 -28 26 0 50 7 66 20 l26 20 -74 34 c-64 28 -173 66
-194 66 -3 0 2 -14 12 -31z m180 -76 c0 -15 0 -15 -21 -7 -22 8 -20 23 2 21
10 0 19 -7 19 -14z"/>
<path d="M7900 2255 c-19 -49 -11 -56 29 -29 18 13 28 14 48 5 14 -7 28 -9 31
-6 3 2 11 0 18 -6 20 -17 94 9 94 33 0 12 -5 18 -12 15 -7 -2 -12 -9 -11 -14
2 -12 -56 -11 -65 2 -4 6 -25 10 -47 11 -22 0 -48 4 -57 8 -14 6 -20 2 -28
-19z"/>
<path d="M7177 2241 c-4 -18 -13 -21 -60 -21 l-56 0 -3 -37 c-3 -34 0 -39 26
-48 23 -8 30 -17 33 -44 2 -19 -3 -44 -11 -56 -9 -14 -11 -27 -5 -36 5 -8 9
-31 9 -51 0 -38 0 -38 41 -38 34 0 40 -3 35 -16 -4 -10 1 -25 10 -36 16 -17
18 -17 36 -1 16 14 23 15 59 3 33 -11 44 -11 61 -1 18 11 20 11 15 -3 -3 -8
-2 -18 3 -21 6 -4 10 3 10 13 0 11 21 46 46 77 46 56 47 59 54 149 3 50 5 93
3 95 -2 3 -54 7 -116 9 -124 5 -140 10 -166 53 -17 28 -19 28 -24 10z m126
-191 c3 6 4 5 3 -2 -4 -18 -28 -16 -34 2 -4 13 -3 13 10 2 11 -9 18 -9 21 -2z"/>
<path d="M6957 2236 c-3 -7 -27 -19 -54 -26 -42 -11 -45 -13 -25 -21 17 -6 22
-16 22 -43 0 -25 7 -40 26 -55 15 -12 32 -21 38 -21 7 0 31 -9 54 -20 22 -11
48 -20 56 -20 21 0 35 30 29 63 -4 22 -11 27 -34 27 -28 0 -29 2 -29 46 0 35
-5 50 -22 65 -27 22 -54 24 -61 5z m48 -95 c0 -8 -7 -16 -15 -18 -13 -4 -13
-3 0 6 8 5 11 13 7 17 -4 4 -13 2 -19 -4 -16 -16 -28 -15 -28 1 0 8 11 13 28
12 16 0 27 -5 27 -14z"/>
<path d="M7926 2209 c-21 -17 -28 -18 -45 -7 -16 10 -23 10 -33 0 -6 -6 -27
-12 -46 -12 -21 0 -31 -4 -27 -11 4 -5 -1 -19 -11 -30 -19 -21 -59 -26 -70 -8
-14 23 -22 -14 -17 -85 3 -39 5 -77 6 -83 0 -16 13 -17 22 -2 12 19 49 28 65
15 8 -7 34 -18 58 -25 23 -6 42 -16 42 -21 0 -6 11 -10 25 -10 31 0 42 -23 26
-57 -9 -19 -9 -29 -1 -37 19 -19 30 15 30 101 0 96 11 133 40 133 21 0 29 33
10 45 -6 4 -7 23 -4 44 5 32 3 40 -19 54 -24 15 -27 15 -51 -4z m-66 -120 c0
-5 -3 -9 -7 -10 -5 0 -16 -2 -25 -4 -10 -2 -18 3 -18 10 0 7 11 13 25 13 14 0
25 -4 25 -9z"/>
<path d="M8077 2209 c-9 -6 -15 -14 -12 -20 4 -5 1 -9 -5 -9 -6 0 -8 -5 -5
-10 4 -6 15 0 27 15 23 29 21 38 -5 24z"/>
<path d="M8023 2193 c9 -9 20 -13 24 -9 4 4 1 11 -7 16 -25 16 -35 11 -17 -7z"/>
<path d="M8013 2166 c3 -7 0 -19 -6 -25 -7 -7 -8 -14 -1 -21 7 -7 16 -4 29 10
14 16 15 22 5 35 -16 19 -34 20 -27 1z"/>
<path d="M7487 2004 c-3 -19 -25 -58 -51 -90 -49 -59 -54 -77 -32 -100 27 -27
67 -36 85 -19 10 8 42 18 72 22 54 8 54 8 57 46 3 32 0 38 -23 47 -19 7 -25
15 -21 26 3 9 6 18 6 20 0 13 31 1 44 -18 l16 -22 0 21 c0 12 7 26 16 31 10 6
14 19 12 38 -2 23 -7 28 -23 26 -25 -4 -28 -4 -96 1 l-57 5 -5 -34z m133 -18
c0 -3 -4 -8 -10 -11 -5 -3 -10 -1 -10 4 0 6 5 11 10 11 6 0 10 -2 10 -4z
m-147 -103 c-6 -17 -5 -17 14 0 11 9 24 17 29 17 5 0 2 -5 -6 -10 -12 -8 -12
-12 -2 -18 9 -6 3 -9 -17 -10 -29 -1 -41 15 -24 31 11 11 13 8 6 -10z"/>
<path d="M7706 1958 c-21 -16 -31 -19 -34 -10 -6 18 -22 4 -22 -19 0 -10 -4
-19 -9 -19 -5 0 -9 -19 -9 -41 -1 -53 -9 -61 -68 -65 -44 -3 -97 -34 -82 -49
3 -3 36 -7 74 -8 64 -3 68 -5 77 -30 5 -15 12 -27 17 -27 5 0 10 -12 12 -27 2
-23 7 -27 28 -25 14 2 30 7 35 12 6 4 27 13 48 20 41 13 79 62 92 118 3 18 12
38 18 45 19 19 38 67 32 78 -4 5 -17 9 -31 9 -13 0 -24 4 -24 10 0 5 -19 15
-42 21 -24 7 -47 16 -52 21 -15 12 -28 9 -60 -14z m56 -136 c-3 -10 -1 -13 6
-8 7 4 12 2 12 -4 0 -12 -50 -3 -65 13 -7 7 -4 8 8 4 9 -4 17 -3 17 2 0 4 6 8
14 8 8 0 12 -6 8 -15z"/>
<path d="M7586 1943 c-3 -3 -3 -10 0 -14 7 -12 34 -11 34 0 0 11 -26 22 -34
14z"/>
<path d="M7224 1825 c-12 -18 -18 -48 -18 -93 l-1 -67 40 -5 c35 -4 41 -9 50
-37 12 -44 36 -42 83 4 42 41 92 112 92 130 0 6 -16 17 -35 23 -19 6 -38 17
-42 23 -13 20 -47 34 -100 42 -48 6 -53 5 -69 -20z m88 -74 c8 12 9 12 6 0 -6
-22 -28 -25 -27 -4 0 12 2 14 6 4 5 -11 7 -11 15 0z m32 -7 c3 -8 2 -12 -4 -9
-6 3 -10 10 -10 16 0 14 7 11 14 -7z"/>
<path d="M7885 1793 c-9 -21 -21 -46 -26 -56 -10 -18 -4 -37 11 -37 14 0 50
66 50 93 0 41 -17 41 -35 0z"/>
<path d="M7449 1694 c-17 -25 -28 -48 -25 -51 3 -3 29 -11 58 -18 46 -10 53
-15 60 -42 10 -40 44 -50 79 -23 15 10 39 22 53 26 27 6 53 31 43 40 -3 3 -14
1 -26 -5 -16 -9 -22 -7 -35 10 -8 12 -12 28 -9 35 3 8 1 14 -5 14 -6 0 -14 12
-19 26 -8 23 -14 26 -75 30 l-67 4 -32 -46z m138 -38 c-6 -17 -34 -19 -40 -3
-4 10 2 15 19 15 14 0 23 -5 21 -12z"/>
<path d="M7811 1673 c-19 -12 -42 -23 -53 -23 -18 0 -36 -25 -25 -36 8 -8 88
16 113 34 51 37 17 61 -35 25z m14 -23 c-3 -5 -10 -10 -16 -10 -5 0 -9 5 -9
10 0 6 7 10 16 10 8 0 12 -4 9 -10z"/>
<path d="M7377 1612 c-27 -30 -39 -81 -23 -98 8 -7 16 -19 18 -25 8 -24 193
-7 202 18 8 19 -1 33 -19 33 -8 0 -18 15 -23 32 -7 27 -14 34 -43 39 -19 4
-48 10 -64 14 -23 5 -35 2 -48 -13z m93 -57 c0 -18 -16 -20 -26 -4 -4 8 -9 7
-15 -2 -7 -11 -9 -10 -9 4 0 12 8 17 25 17 16 0 25 -6 25 -15z"/>
<path d="M7486 1469 c-11 -7 -39 -9 -68 -6 -61 8 -62 -12 -1 -28 23 -5 50 -17
60 -26 10 -9 26 -19 36 -22 11 -4 15 -12 11 -19 -4 -7 3 -4 15 6 17 16 21 29
19 60 -3 35 -6 41 -28 43 -14 2 -33 -2 -44 -8z m37 -27 c-5 -22 -33 -25 -33
-5 0 8 4 12 9 8 5 -3 12 -1 16 5 10 16 14 12 8 -8z"/>
<path d="M7330 1414 c-14 -9 -42 -33 -62 -52 l-37 -35 24 -18 c13 -11 26 -19
29 -19 8 0 63 -37 93 -63 13 -12 19 -26 16 -36 -5 -13 -3 -14 7 -4 7 7 14 20
15 30 4 43 17 63 40 63 17 0 29 9 40 30 18 35 20 70 3 70 -6 0 -21 9 -32 19
-31 28 -105 36 -136 15z m40 -74 c0 -5 -4 -10 -10 -10 -5 0 -10 5 -10 10 0 6
5 10 10 10 6 0 10 -4 10 -10z m28 -15 c-3 -3 -9 2 -12 12 -6 14 -5 15 5 6 7
-7 10 -15 7 -18z"/>
<path d="M4925 1955 c-110 -39 -137 -177 -50 -253 49 -43 103 -50 163 -20 167
83 63 336 -113 273z"/>
</g>
</svg>
